<svg width="40" height="40" viewBox="0 0 40 40" fill="none" xmlns="http://www.w3.org/2000/svg">
<g clip-path="url(#clip0)">
<rect x="2" y="2" width="36" height="36" rx="4" fill="#272727"/>
<g filter="url(#filter0_d)">
<path d="M13.0998 25.84L13.4898 25.81H11.5098H9.55977C9.63977 25.83 9.75977 25.84 9.91977 25.84C10.0598 25.84 10.3098 25.84 10.6698 25.84C11.0298 25.86 11.3098 25.87 11.5098 25.87C11.7098 25.87 11.9898 25.86 12.3498 25.84C12.7298 25.84 12.9798 25.84 13.0998 25.84ZM19.4898 23.14C19.6298 23.2 19.7398 23.19 19.8198 23.11C19.8598 23.05 19.8398 23.02 19.7598 23.02C19.7198 23.02 19.6698 23.02 19.6098 23.02C19.5098 23.02 19.4398 23.03 19.3998 23.05C19.3798 23.07 19.4098 23.1 19.4898 23.14ZM31.6998 12.1C31.9798 12.1 32.2198 12.04 32.4198 11.92C32.6198 11.8 32.7698 11.74 32.8698 11.74C33.0098 11.74 33.3998 11.94 34.0398 12.34C34.6798 12.72 35.1098 13.02 35.3298 13.24L35.7498 13.72L35.2698 13.9C34.9098 14.02 34.7198 14.08 34.6998 14.08L33.4998 14.65C32.9198 14.95 32.4298 15.1 32.0298 15.1C31.8298 15.1 31.6598 15.09 31.5198 15.07C31.3998 15.05 31.2398 15.04 31.0398 15.04C30.7798 15.04 30.5698 15.1 30.4098 15.22C30.1698 15.46 27.9698 16.68 23.8098 18.88C19.4298 21.26 17.2398 22.46 17.2398 22.48C17.2398 22.56 17.8798 22.6 19.1598 22.6C21.0198 22.6 23.2998 22.54 25.9998 22.42C28.7198 22.3 30.2298 22.18 30.5298 22.06C30.7698 21.98 30.9198 21.94 30.9798 21.94C31.1598 21.94 31.4698 22.12 31.9098 22.48C32.3898 22.86 32.6698 23.05 32.7498 23.05L32.8098 23.02C32.8698 23.02 32.9298 23.01 32.9898 22.99C33.0698 22.99 33.1498 22.99 33.2298 22.99C33.5298 22.99 33.7098 23.16 33.7698 23.5V23.68C33.7698 23.96 33.5598 24.35 33.1398 24.85C32.7198 25.37 32.3598 25.63 32.0598 25.63C32.0198 25.63 31.9598 25.62 31.8798 25.6C31.7998 25.6 31.7298 25.6 31.6698 25.6H31.2498C29.5698 25.6 25.5998 25.75 19.3398 26.05C13.0998 26.35 9.88977 26.55 9.70977 26.65C9.62977 26.71 9.51977 26.74 9.37977 26.74C9.15977 26.74 8.74977 26.64 8.14977 26.44C7.36977 26.18 6.97977 26 6.97977 25.9C6.97977 25.78 6.87977 25.72 6.67977 25.72C6.41977 25.72 5.94977 25.55 5.26977 25.21C4.58977 24.87 4.24977 24.64 4.24977 24.52C4.24977 24.28 4.47977 24.16 4.93977 24.16C5.15977 24.16 5.34977 24.2 5.50977 24.28C5.58977 24.34 5.70977 24.37 5.86977 24.37C6.14977 24.37 6.75977 24.19 7.69977 23.83L9.49977 23.14L10.4298 23.65C10.9498 23.91 11.3098 24.04 11.5098 24.04C11.5498 24.04 11.5698 24.03 11.5698 24.01C11.5698 23.93 11.3498 23.76 10.9098 23.5C10.3698 23.18 10.0998 22.94 10.0998 22.78C10.0998 22.7 10.1698 22.6 10.3098 22.48C10.4298 22.4 13.4098 20.95 19.2498 18.13C25.1698 15.31 28.6198 13.61 29.5998 13.03C30.6998 12.41 31.3998 12.1 31.6998 12.1Z" fill="#FBEE0C"/>
</g>
</g>
<defs>
<filter id="filter0_d" x="4.24976" y="11.74" width="31.75" height="15.5" filterUnits="userSpaceOnUse" color-interpolation-filters="sRGB">
<feFlood flood-opacity="0" result="BackgroundImageFix"/>
<feColorMatrix in="SourceAlpha" type="matrix" values="0 0 0 0 0 0 0 0 0 0 0 0 0 0 0 0 0 0 127 0"/>
<feOffset dx="0.25" dy="0.5"/>
<feColorMatrix type="matrix" values="0 0 0 0 0.309804 0 0 0 0 0.784314 0 0 0 0 0.972549 0 0 0 1 0"/>
<feBlend mode="normal" in2="BackgroundImageFix" result="effect1_dropShadow"/>
<feBlend mode="normal" in="SourceGraphic" in2="effect1_dropShadow" result="shape"/>
</filter>
<clipPath id="clip0">
<rect width="40" height="40" fill="white"/>
</clipPath>
</defs>
</svg>
